<svg xmlns="http://www.w3.org/2000/svg" width="64" height="64" viewBox="0 0 64 64">
  <defs>
    <linearGradient id="g" x1="0" y1="0" x2="1" y2="1">
      <stop offset="0" stop-color="#e9c27a" />
      <stop offset="1" stop-color="#6bc2a3" />
    </linearGradient>
  </defs>
  <rect width="64" height="64" rx="16" fill="#151b16" />
  <path d="M32 10c-7.7 0-14 6.3-14 14 0 5.9 3.6 11.1 8.8 13.2V44c0 1.1.9 2 2 2h6.4c1.1 0 2-.9 2-2v-6.8C42.4 35.1 46 29.9 46 24c0-7.7-6.3-14-14-14z" fill="url(#g)" />
  <path d="M26 48h12c1.1 0 2 .9 2 2v2c0 1.1-.9 2-2 2H26c-1.1 0-2-.9-2-2v-2c0-1.1.9-2 2-2z" fill="#2b342d" />
</svg>
